<svg id="visual" viewBox="0 0 960 300" width="960" height="300" xmlns="http://www.w3.org/2000/svg" xmlns:xlink="http://www.w3.org/1999/xlink" version="1.1"><rect x="0" y="0" width="960" height="300" fill="#231f25"></rect><path d="M0 203L22.8 203.2C45.7 203.3 91.3 203.7 137 200.7C182.7 197.7 228.3 191.3 274 191.7C319.7 192 365.3 199 411.2 202.5C457 206 503 206 548.8 207.7C594.7 209.3 640.3 212.7 686 214.5C731.7 216.3 777.3 216.7 823 211.2C868.7 205.7 914.3 194.3 937.2 188.7L960 183L960 301L937.2 301C914.3 301 868.7 301 823 301C777.3 301 731.7 301 686 301C640.3 301 594.7 301 548.8 301C503 301 457 301 411.2 301C365.3 301 319.7 301 274 301C228.3 301 182.7 301 137 301C91.3 301 45.7 301 22.8 301L0 301Z" fill="#231f25"></path><path d="M0 233L22.8 227.2C45.7 221.3 91.3 209.7 137 204C182.7 198.3 228.3 198.7 274 200.2C319.7 201.7 365.3 204.3 411.2 210.3C457 216.3 503 225.7 548.8 229.5C594.7 233.3 640.3 231.7 686 226.8C731.7 222 777.3 214 823 212.2C868.7 210.3 914.3 214.7 937.2 216.8L960 219L960 301L937.2 301C914.3 301 868.7 301 823 301C777.3 301 731.7 301 686 301C640.3 301 594.7 301 548.8 301C503 301 457 301 411.2 301C365.3 301 319.7 301 274 301C228.3 301 182.7 301 137 301C91.3 301 45.7 301 22.8 301L0 301Z" fill="#1e1b20"></path><path d="M0 221L22.8 223.7C45.7 226.3 91.3 231.7 137 233.3C182.7 235 228.3 233 274 235.3C319.7 237.7 365.3 244.3 411.2 246C457 247.7 503 244.3 548.8 241.5C594.7 238.7 640.3 236.3 686 237.8C731.7 239.3 777.3 244.7 823 247.7C868.7 250.7 914.3 251.3 937.2 251.7L960 252L960 301L937.2 301C914.3 301 868.7 301 823 301C777.3 301 731.7 301 686 301C640.3 301 594.7 301 548.8 301C503 301 457 301 411.2 301C365.3 301 319.7 301 274 301C228.3 301 182.7 301 137 301C91.3 301 45.7 301 22.8 301L0 301Z" fill="#1a171c"></path><path d="M0 256L22.8 256.7C45.7 257.3 91.3 258.7 137 261C182.7 263.3 228.3 266.7 274 264.7C319.7 262.7 365.3 255.3 411.2 253.7C457 252 503 256 548.8 257.2C594.7 258.3 640.3 256.7 686 255C731.7 253.3 777.3 251.7 823 251C868.7 250.3 914.3 250.7 937.2 250.8L960 251L960 301L937.2 301C914.3 301 868.7 301 823 301C777.3 301 731.7 301 686 301C640.3 301 594.7 301 548.8 301C503 301 457 301 411.2 301C365.3 301 319.7 301 274 301C228.3 301 182.7 301 137 301C91.3 301 45.7 301 22.8 301L0 301Z" fill="#161318"></path><path d="M0 273L22.8 273.8C45.7 274.7 91.3 276.3 137 275.3C182.7 274.3 228.3 270.7 274 270C319.7 269.3 365.3 271.7 411.2 273.7C457 275.7 503 277.3 548.8 277.7C594.7 278 640.3 277 686 276C731.7 275 777.3 274 823 272.5C868.7 271 914.3 269 937.2 268L960 267L960 301L937.2 301C914.3 301 868.7 301 823 301C777.3 301 731.7 301 686 301C640.3 301 594.7 301 548.8 301C503 301 457 301 411.2 301C365.3 301 319.7 301 274 301C228.3 301 182.7 301 137 301C91.3 301 45.7 301 22.8 301L0 301Z" fill="#110d13"></path></svg>