<svg id="visual" viewBox="0 0 960 300" width="960" height="300" xmlns="http://www.w3.org/2000/svg" xmlns:xlink="http://www.w3.org/1999/xlink" version="1.1"><rect x="0" y="0" width="960" height="300" fill="#ee6b00"></rect><path d="M0 157L107 212L213 145L320 166L427 182L533 194L640 227L747 221L853 209L960 194L960 0L853 0L747 0L640 0L533 0L427 0L320 0L213 0L107 0L0 0Z" fill="#f5730a"></path><path d="M0 144L107 196L213 167L320 168L427 156L533 187L640 129L747 152L853 195L960 159L960 0L853 0L747 0L640 0L533 0L427 0L320 0L213 0L107 0L0 0Z" fill="#e55834"></path><path d="M0 111L107 152L213 128L320 124L427 162L533 155L640 131L747 160L853 153L960 159L960 0L853 0L747 0L640 0L533 0L427 0L320 0L213 0L107 0L0 0Z" fill="#cb4447"></path><path d="M0 98L107 129L213 136L320 105L427 106L533 117L640 114L747 126L853 100L960 101L960 0L853 0L747 0L640 0L533 0L427 0L320 0L213 0L107 0L0 0Z" fill="#aa3951"></path><path d="M0 89L107 94L213 108L320 86L427 109L533 101L640 87L747 85L853 105L960 88L960 0L853 0L747 0L640 0L533 0L427 0L320 0L213 0L107 0L0 0Z" fill="#853453"></path><path d="M0 85L107 52L213 93L320 63L427 61L533 91L640 91L747 71L853 67L960 86L960 0L853 0L747 0L640 0L533 0L427 0L320 0L213 0L107 0L0 0Z" fill="#602f4b"></path><path d="M0 69L107 62L213 41L320 51L427 65L533 63L640 44L747 33L853 35L960 54L960 0L853 0L747 0L640 0L533 0L427 0L320 0L213 0L107 0L0 0Z" fill="#3e293b"></path><path d="M0 44L107 15L213 31L320 38L427 24L533 31L640 34L747 41L853 37L960 32L960 0L853 0L747 0L640 0L533 0L427 0L320 0L213 0L107 0L0 0Z" fill="#231f25"></path></svg>