<svg id="visual" viewBox="0 0 960 300" width="960" height="300" xmlns="http://www.w3.org/2000/svg" xmlns:xlink="http://www.w3.org/1999/xlink" version="1.1"><rect x="0" y="0" width="960" height="300" fill="#231f25"></rect><path d="M0 185L80 185L80 162L160 162L160 177L240 177L240 159L320 159L320 127L400 127L400 147L480 147L480 184L560 184L560 166L640 166L640 153L720 153L720 189L800 189L800 136L880 136L880 163L960 163L960 139L960 0L960 0L880 0L880 0L800 0L800 0L720 0L720 0L640 0L640 0L560 0L560 0L480 0L480 0L400 0L400 0L320 0L320 0L240 0L240 0L160 0L160 0L80 0L80 0L0 0Z" fill="#231f25"></path><path d="M0 166L80 166L80 141L160 141L160 139L240 139L240 162L320 162L320 150L400 150L400 120L480 120L480 167L560 167L560 144L640 144L640 142L720 142L720 161L800 161L800 158L880 158L880 141L960 141L960 120L960 0L960 0L880 0L880 0L800 0L800 0L720 0L720 0L640 0L640 0L560 0L560 0L480 0L480 0L400 0L400 0L320 0L320 0L240 0L240 0L160 0L160 0L80 0L80 0L0 0Z" fill="#3a2738"></path><path d="M0 131L80 131L80 132L160 132L160 147L240 147L240 128L320 128L320 106L400 106L400 146L480 146L480 142L560 142L560 135L640 135L640 122L720 122L720 103L800 103L800 100L880 100L880 121L960 121L960 97L960 0L960 0L880 0L880 0L800 0L800 0L720 0L720 0L640 0L640 0L560 0L560 0L480 0L480 0L400 0L400 0L320 0L320 0L240 0L240 0L160 0L160 0L80 0L80 0L0 0Z" fill="#562c47"></path><path d="M0 115L80 115L80 106L160 106L160 108L240 108L240 84L320 84L320 86L400 86L400 114L480 114L480 112L560 112L560 114L640 114L640 84L720 84L720 106L800 106L800 84L880 84L880 116L960 116L960 92L960 0L960 0L880 0L880 0L800 0L800 0L720 0L720 0L640 0L640 0L560 0L560 0L480 0L480 0L400 0L400 0L320 0L320 0L240 0L240 0L160 0L160 0L80 0L80 0L0 0Z" fill="#75304f"></path><path d="M0 95L80 95L80 70L160 70L160 95L240 95L240 101L320 101L320 107L400 107L400 109L480 109L480 71L560 71L560 107L640 107L640 100L720 100L720 106L800 106L800 74L880 74L880 107L960 107L960 89L960 0L960 0L880 0L880 0L800 0L800 0L720 0L720 0L640 0L640 0L560 0L560 0L480 0L480 0L400 0L400 0L320 0L320 0L240 0L240 0L160 0L160 0L80 0L80 0L0 0Z" fill="#953251"></path><path d="M0 64L80 64L80 88L160 88L160 60L240 60L240 67L320 67L320 56L400 56L400 60L480 60L480 69L560 69L560 82L640 82L640 83L720 83L720 89L800 89L800 89L880 89L880 70L960 70L960 72L960 0L960 0L880 0L880 0L800 0L800 0L720 0L720 0L640 0L640 0L560 0L560 0L480 0L480 0L400 0L400 0L320 0L320 0L240 0L240 0L160 0L160 0L80 0L80 0L0 0Z" fill="#b3374c"></path><path d="M0 42L80 42L80 44L160 44L160 59L240 59L240 53L320 53L320 68L400 68L400 43L480 43L480 45L560 45L560 70L640 70L640 59L720 59L720 42L800 42L800 58L880 58L880 46L960 46L960 54L960 0L960 0L880 0L880 0L800 0L800 0L720 0L720 0L640 0L640 0L560 0L560 0L480 0L480 0L400 0L400 0L320 0L320 0L240 0L240 0L160 0L160 0L80 0L80 0L0 0Z" fill="#cd4140"></path><path d="M0 41L80 41L80 43L160 43L160 38L240 38L240 50L320 50L320 51L400 51L400 35L480 35L480 49L560 49L560 31L640 31L640 51L720 51L720 29L800 29L800 33L880 33L880 51L960 51L960 46L960 0L960 0L880 0L880 0L800 0L800 0L720 0L720 0L640 0L640 0L560 0L560 0L480 0L480 0L400 0L400 0L320 0L320 0L240 0L240 0L160 0L160 0L80 0L80 0L0 0Z" fill="#e1532c"></path><path d="M0 14L80 14L80 29L160 29L160 21L240 21L240 19L320 19L320 28L400 28L400 30L480 30L480 31L560 31L560 15L640 15L640 17L720 17L720 32L800 32L800 30L880 30L880 31L960 31L960 29L960 0L960 0L880 0L880 0L800 0L800 0L720 0L720 0L640 0L640 0L560 0L560 0L480 0L480 0L400 0L400 0L320 0L320 0L240 0L240 0L160 0L160 0L80 0L80 0L0 0Z" fill="#ee6b00"></path></svg>